<svg width="28" height="28" viewBox="0 0 28 28" fill="none" xmlns="http://www.w3.org/2000/svg">
<path d="M22.1663 2.33234V4.66567H19.8329V8.16567C21.7661 8.16567 23.3329 9.7325 23.3329 11.6657V24.499C23.3329 25.143 22.8103 25.6657 22.1663 25.6657H5.83293C5.18893 25.6657 4.66626 25.143 4.66626 24.499V11.6657C4.66626 9.7325 6.23309 8.16567 8.16626 8.16567V4.66567H5.83293V2.33234H22.1663ZM19.8329 10.499H8.16626C7.52226 10.499 6.99959 11.0217 6.99959 11.6657V23.3323H20.9996V11.6657C20.9996 11.0217 20.4769 10.499 19.8329 10.499ZM15.1663 12.8323V15.1657H17.4996V17.499H15.1651L15.1663 19.8323H12.8329L12.8318 17.499H10.4996V15.1657H12.8329V12.8323H15.1663ZM17.4996 4.66567H10.4996V8.16567H17.4996V4.66567Z" fill="#4D9DC3"/>
</svg>
