<svg width="28" height="28" viewBox="0 0 28 28" fill="none" xmlns="http://www.w3.org/2000/svg">
<g clip-path="url(#clip0_0_1312)">
<path d="M7.58793 13.8213L7.58874 13.8205C8.85106 12.5598 10.8988 12.5592 12.1605 13.8209L13.998 15.6584L15.8367 13.8232L7.58793 13.8213ZM7.58793 13.8213C6.327 15.0838 6.327 17.1312 7.58793 18.3938L7.58833 18.3942M7.58793 13.8213L7.58833 18.3942M7.58833 18.3942L13.3633 24.1692L13.9997 24.8056M7.58833 18.3942L13.9997 24.8056M13.9997 24.8056L14.6361 24.1692M13.9997 24.8056L14.6361 24.1692M14.6361 24.1692L20.4111 18.3942L20.4115 18.3938M14.6361 24.1692L20.4115 18.3938M20.4115 18.3938C21.6725 17.1312 21.6725 15.0838 20.4115 13.8213L20.4107 13.8205M20.4115 18.3938L20.4107 13.8205M20.4107 13.8205C19.148 12.5594 17.1008 12.5598 15.8373 13.8226L20.4107 13.8205ZM20.7302 13.3886L20.7882 13.4466C22.2587 14.9161 22.259 17.3013 20.788 18.7722L14.1882 25.3721C14.0846 25.4756 13.9148 25.4756 13.8113 25.3721L7.21146 18.7722C5.7406 17.3014 5.7406 14.916 7.21146 13.4452C8.68228 11.9744 11.0675 11.9743 12.5384 13.4451C12.5384 13.4451 12.5385 13.4452 12.5385 13.4452L13.3617 14.2696L13.9977 14.9064L14.6345 14.2705L15.4605 13.4456L15.461 13.4452C16.9127 11.9934 19.2553 11.9746 20.7302 13.3886ZM13.9997 2.06663C16.081 2.06663 17.7664 3.75202 17.7664 5.83329C17.7664 7.91457 16.081 9.59996 13.9997 9.59996C11.9185 9.59996 10.2331 7.91457 10.2331 5.83329C10.2331 3.75202 11.9185 2.06663 13.9997 2.06663ZM13.9997 2.59996C12.2135 2.59996 10.7664 4.04707 10.7664 5.83329C10.7664 7.61951 12.2135 9.06663 13.9997 9.06663C15.786 9.06663 17.2331 7.61951 17.2331 5.83329C17.2331 4.04707 15.786 2.59996 13.9997 2.59996Z" fill="#20202F" stroke="#4D9DC3" stroke-width="1.8"/>
</g>
<defs>
<clipPath id="clip0_0_1312">
<rect width="28" height="28" fill="white"/>
</clipPath>
</defs>
</svg>
