<svg width="28" height="28" viewBox="0 0 28 28" fill="none" xmlns="http://www.w3.org/2000/svg">
<path d="M21.1973 10.5746L21.223 10.7731L21.3304 10.942L23.7556 14.7565L21.8129 15.5875L21.2669 15.8211V16.415V19.8333C21.2669 20.6254 20.6257 21.2667 19.8336 21.2667H17.5014H16.6017L16.6014 22.1664L16.6005 24.7667H7.90024V21.357C7.90024 19.7447 7.30104 18.248 6.25115 16.9382L6.25094 16.938C5.09229 15.4936 4.40024 13.6619 4.40024 11.6666C4.40024 7.00937 8.1763 3.23331 12.8336 3.23331C17.1212 3.23331 20.6619 6.4335 21.1973 10.5746ZM22.4012 13.6195L20.7087 10.9595L20.6679 10.6427L20.6678 10.6424C20.1619 6.72947 16.8148 3.76665 12.8336 3.76665C8.47019 3.76665 4.93358 7.30326 4.93358 11.6666C4.93358 13.4886 5.55024 15.213 6.66691 16.6048C7.83007 18.0551 8.43358 19.6723 8.43358 21.357V23.3333V24.2333H9.33358H15.1669H16.0663L16.0669 23.3339L16.0686 20.7333H19.8336H20.7336V19.8333V15.4709L21.9963 14.9299L22.9697 14.5129L22.4012 13.6195ZM13.1002 10.5V11.4H14.0002H15.1669C15.3139 11.4 15.4336 11.5197 15.4336 11.6666C15.4336 11.8136 15.3139 11.9333 15.1669 11.9333H14.0002H13.1002V12.8333V14C13.1002 14.1469 12.9805 14.2667 12.8336 14.2667C12.6866 14.2667 12.5669 14.1469 12.5669 14V12.8321V11.9312L11.666 11.9321L10.5002 11.9333C10.5001 11.9333 10.4999 11.9333 10.4998 11.9333C10.353 11.9331 10.2336 11.8134 10.2336 11.6666C10.2336 11.5197 10.3533 11.4 10.5002 11.4L10.5011 11.4L11.6678 11.3988L12.5669 11.3979V10.4988V9.33331C12.5669 9.18637 12.6866 9.06665 12.8336 9.06665C12.9805 9.06665 13.1002 9.18637 13.1002 9.33331V10.5Z" fill="#20202F" stroke="#4D9DC3" stroke-width="1.8"/>
</svg>
