<svg width="28" height="28" viewBox="0 0 28 28" fill="none" xmlns="http://www.w3.org/2000/svg">
<path d="M12.8336 24.2333C16.8918 24.2333 20.2363 21.1725 20.683 17.2333H21.2194C20.7702 21.4675 17.1868 24.7667 12.8336 24.7667C8.1763 24.7667 4.40024 20.9906 4.40024 16.3333C4.40024 12.065 7.70243 8.40817 11.9336 7.9486V8.48401C7.99406 8.93066 4.93358 12.2743 4.93358 16.3333C4.93358 20.6967 8.47019 24.2333 12.8336 24.2333ZM18.2854 12.5666H23.6002V13.1H16.0669V12.0085L22.0537 5.26411L23.3829 3.76665H21.3806H16.0669V3.23331H23.6002V4.32477L17.6124 11.0691L16.2828 12.5666H18.2854Z" fill="#20202F" stroke="#2689B0" stroke-width="1.8"/>
</svg>
